<svg width="96" height="49" viewBox="0 0 96 49" fill="none" xmlns="http://www.w3.org/2000/svg">
<path d="M84.5962 20.92V34.7322H96V39.601H66.449V4.86876H5.53748V41.8921H27.6942V46.7609H0.603638V0H71.3698V34.7322H79.6623V16.0643H96V20.92H84.5962Z" fill="#C3A673"/>
<path d="M40.6862 16.0643V39.3927H21.4325V20.92H13.3353V34.5239H17.9958V39.3927H8.47955V16.0643H26.3013V34.5239H35.8175V16.0643H40.6862Z" fill="#C3A673"/>
<path fill-rule="evenodd" clip-rule="evenodd" d="M63.3507 16.0643V49H47.3515V44.1312H58.482V39.3927H43.7976V16.0643H63.3507ZM58.482 34.5239V20.92H48.6664V34.5239H58.482Z" fill="#C3A673"/>
<path d="M30.7405 46.7609H35.1406V41.8921H30.7405V46.7609Z" fill="#C3A673"/>
<path d="M36.5335 46.7609H40.8165V41.8921H36.5335V46.7609Z" fill="#C3A673"/>
<path d="M12.4891 12.9009H16.8892V8.03214H12.4891V12.9009Z" fill="#C3A673"/>
<path d="M18.152 12.9009H22.5521V8.03214H18.152V12.9009Z" fill="#C3A673"/>
<path d="M85.2992 12.9009H89.6993V8.03214H85.2992V12.9009Z" fill="#C3A673"/>
</svg>
