<?xml version="1.0" encoding="UTF-8"?>
<svg id="Layer_2" data-name="Layer 2" xmlns="http://www.w3.org/2000/svg" viewBox="0 0 95.4 49">
  <g id="Layer_1-2" data-name="Layer 1">
    <path class="cls-1" d="M83.99,20.92v13.81h11.4v4.87h-29.55V4.87H4.93v37.02h22.16v4.87H0V0h70.77v34.73h8.29v-18.67h16.34v4.86h-11.4Z"/>
    <path class="cls-1" d="M40.08,16.06v23.33h-19.25v-18.47h-8.1v13.6h4.66v4.87H7.88v-23.33h17.82v18.46h9.52v-18.46h4.87Z"/>
    <path class="cls-1" d="M62.75,16.06v32.94h-16v-4.87h11.13v-4.74h-14.68v-23.33h19.55ZM57.88,34.52v-13.6h-9.82v13.6h9.82Z"/>
    <path class="cls-1" d="M30.14,46.76h4.4v-4.87h-4.4v4.87Z"/>
    <path class="cls-1" d="M35.93,46.76h4.28v-4.87h-4.28v4.87Z"/>
    <path class="cls-1" d="M11.89,12.9h4.4v-4.87h-4.4v4.87Z"/>
    <path class="cls-1" d="M17.55,12.9h4.4v-4.87h-4.4v4.87Z"/>
    <path class="cls-1" d="M84.7,12.9h4.4v-4.87h-4.4v4.87Z"/>
  </g>
</svg>